<svg width="729" height="776" viewBox="0 0 729 776" fill="none" xmlns="http://www.w3.org/2000/svg">
<mask id="mask0_1_620" style="mask-type:luminance" maskUnits="userSpaceOnUse" x="-334" y="0" width="1127" height="776">
<path d="M793 0H-334V776H793V0Z" fill="white"/>
</mask>
<g mask="url(#mask0_1_620)">
<g opacity="0.05">
<path d="M321.128 646.374H264.13V779.674H321.128V646.374Z" fill="#333333"/>
<path d="M290.038 639.649H264.13V647.237H290.038V639.649Z" fill="#333333"/>
<path d="M279.157 635.338H264.13V639.649H279.157V635.338Z" fill="#333333"/>
<path opacity="0.06" d="M297.293 655.686H287.966V662.584H297.293V655.686Z" fill="white"/>
<path opacity="0.12" d="M297.293 672.758H287.966V679.656H297.293V672.758Z" fill="white"/>
<path opacity="0.19" d="M297.293 706.902H287.966V713.8H297.293V706.902Z" fill="white"/>
<path opacity="0.14" d="M297.293 741.046H287.966V747.944H297.293V741.046Z" fill="white"/>
<path opacity="0.1" d="M297.293 758.118H287.966V765.016H297.293V758.118Z" fill="white"/>
<path d="M178.116 660.859H100.046V732.251H178.116V660.859Z" fill="#333333"/>
<path d="M165.853 654.479H112.482V685.174H165.853V654.479Z" fill="#333333"/>
<path d="M183.815 705.867H105.746V777.259H183.815V705.867Z" fill="#333333"/>
<path d="M171.38 699.486H118.009V730.181H171.38V699.486Z" fill="#333333"/>
<path d="M287.793 696.382H209.724V778.639H287.793V696.382Z" fill="#333333"/>
<path d="M275.53 689.14H222.159V724.663H275.53V689.14Z" fill="#333333"/>
<path d="M549.119 721.388H471.049V800.884H549.119V721.388Z" fill="#333333"/>
<path d="M536.856 714.317H483.485V748.634H536.856V714.317Z" fill="#333333"/>
<path d="M379.853 557.22H292.629V778.467H379.853V557.22Z" fill="#333333"/>
<path opacity="0.46" d="M318.019 567.222H296.947V571.189H318.019V567.222Z" fill="#E6E6E6"/>
<path opacity="0.34" d="M346.863 567.222H325.792V571.189H346.863V567.222Z" fill="#E6E6E6"/>
<path opacity="0.52" d="M375.535 567.222H354.463V571.189H375.535V567.222Z" fill="#E6E6E6"/>
<path opacity="0.54" d="M318.019 576.362H296.947V580.328H318.019V576.362Z" fill="#E6E6E6"/>
<path opacity="0.3" d="M346.863 576.362H325.792V580.328H346.863V576.362Z" fill="#E6E6E6"/>
<path opacity="0.06" d="M375.535 576.362H354.463V580.328H375.535V576.362Z" fill="#E6E6E6"/>
<path opacity="0.15" d="M318.019 585.501H296.947V589.468H318.019V585.501Z" fill="#E6E6E6"/>
<path opacity="0.42" d="M346.863 585.501H325.792V589.468H346.863V585.501Z" fill="#E6E6E6"/>
<path opacity="0.48" d="M375.535 585.501H354.463V589.468H375.535V585.501Z" fill="#E6E6E6"/>
<path opacity="0.18" d="M318.019 594.641H296.947V598.607H318.019V594.641Z" fill="#E6E6E6"/>
<path opacity="0.28" d="M375.535 594.641H354.463V598.607H375.535V594.641Z" fill="#E6E6E6"/>
<path opacity="0.29" d="M318.019 603.78H296.947V607.747H318.019V603.78Z" fill="#E6E6E6"/>
<path opacity="0.28" d="M346.863 603.78H325.792V607.747H346.863V603.78Z" fill="#E6E6E6"/>
<path opacity="0.56" d="M375.535 603.78H354.463V607.747H375.535V603.78Z" fill="#E6E6E6"/>
<path opacity="0.41" d="M318.019 612.92H296.947V616.886H318.019V612.92Z" fill="#E6E6E6"/>
<path opacity="0.16" d="M346.863 612.92H325.792V616.886H346.863V612.92Z" fill="#E6E6E6"/>
<path opacity="0.4" d="M375.535 612.92H354.463V616.886H375.535V612.92Z" fill="#E6E6E6"/>
<path opacity="0.1" d="M318.019 622.06H296.947V626.026H318.019V622.06Z" fill="#E6E6E6"/>
<path opacity="0.17" d="M346.863 622.06H325.792V626.026H346.863V622.06Z" fill="#E6E6E6"/>
<path opacity="0.08" d="M375.535 622.06H354.463V626.026H375.535V622.06Z" fill="#E6E6E6"/>
<path opacity="0.49" d="M318.019 631.199H296.947V635.165H318.019V631.199Z" fill="#E6E6E6"/>
<path opacity="0.58" d="M346.863 631.199H325.792V635.165H346.863V631.199Z" fill="#E6E6E6"/>
<path opacity="0.58" d="M375.535 631.199H354.463V635.165H375.535V631.199Z" fill="#E6E6E6"/>
<path opacity="0.26" d="M318.019 640.339H296.947V644.305H318.019V640.339Z" fill="#E6E6E6"/>
<path opacity="0.37" d="M346.863 640.339H325.792V644.305H346.863V640.339Z" fill="#E6E6E6"/>
<path opacity="0.34" d="M375.535 640.339H354.463V644.305H375.535V640.339Z" fill="#E6E6E6"/>
<path opacity="0.55" d="M318.019 649.478H296.947V653.444H318.019V649.478Z" fill="#E6E6E6"/>
<path opacity="0.12" d="M346.863 649.478H325.792V653.444H346.863V649.478Z" fill="#E6E6E6"/>
<path opacity="0.6" d="M375.535 649.478H354.463V653.444H375.535V649.478Z" fill="#E6E6E6"/>
<path opacity="0.02" d="M318.019 658.618H296.947V662.584H318.019V658.618Z" fill="#E6E6E6"/>
<path opacity="0.28" d="M346.863 658.618H325.792V662.584H346.863V658.618Z" fill="#E6E6E6"/>
<path opacity="0.21" d="M375.535 658.618H354.463V662.584H375.535V658.618Z" fill="#E6E6E6"/>
<path opacity="0.57" d="M318.019 667.757H296.947V671.724H318.019V667.757Z" fill="#E6E6E6"/>
<path opacity="0.38" d="M346.863 667.757H325.792V671.724H346.863V667.757Z" fill="#E6E6E6"/>
<path opacity="0.25" d="M375.535 667.757H354.463V671.724H375.535V667.757Z" fill="#E6E6E6"/>
<path opacity="0.15" d="M318.019 676.897H296.947V680.863H318.019V676.897Z" fill="#E6E6E6"/>
<path opacity="0.47" d="M346.863 676.897H325.792V680.863H346.863V676.897Z" fill="#E6E6E6"/>
<path opacity="0.3" d="M375.535 676.897H354.463V680.863H375.535V676.897Z" fill="#E6E6E6"/>
<path opacity="0.4" d="M318.019 686.036H296.947V690.003H318.019V686.036Z" fill="#E6E6E6"/>
<path opacity="0.39" d="M346.863 686.036H325.792V690.003H346.863V686.036Z" fill="#E6E6E6"/>
<path opacity="0.24" d="M375.535 686.036H354.463V690.003H375.535V686.036Z" fill="#E6E6E6"/>
<path opacity="0.46" d="M318.019 695.176H296.947V699.142H318.019V695.176Z" fill="#E6E6E6"/>
<path opacity="0.22" d="M346.863 695.176H325.792V699.142H346.863V695.176Z" fill="#E6E6E6"/>
<path opacity="0.11" d="M375.535 695.176H354.463V699.142H375.535V695.176Z" fill="#E6E6E6"/>
<path opacity="0.11" d="M346.863 704.316H325.792V708.282H346.863V704.316Z" fill="#E6E6E6"/>
<path opacity="0.02" d="M375.535 704.316H354.463V708.282H375.535V704.316Z" fill="#E6E6E6"/>
<path opacity="0.27" d="M318.019 713.455H296.947V717.422H318.019V713.455Z" fill="#E6E6E6"/>
<path opacity="0.21" d="M346.863 713.455H325.792V717.422H346.863V713.455Z" fill="#E6E6E6"/>
<path opacity="0.49" d="M375.535 713.455H354.463V717.422H375.535V713.455Z" fill="#E6E6E6"/>
<path opacity="0.6" d="M318.019 722.595H296.947V726.561H318.019V722.595Z" fill="#E6E6E6"/>
<path opacity="0.31" d="M346.863 722.595H325.792V726.561H346.863V722.595Z" fill="#E6E6E6"/>
<path opacity="0.22" d="M375.535 722.595H354.463V726.561H375.535V722.595Z" fill="#E6E6E6"/>
<path opacity="0.54" d="M318.019 731.734H296.947V735.701H318.019V731.734Z" fill="#E6E6E6"/>
<path opacity="0.6" d="M346.863 731.734H325.792V735.701H346.863V731.734Z" fill="#E6E6E6"/>
<path opacity="0.08" d="M375.535 731.734H354.463V735.701H375.535V731.734Z" fill="#E6E6E6"/>
<path opacity="0.55" d="M346.863 740.874H325.792V744.84H346.863V740.874Z" fill="#E6E6E6"/>
<path d="M375.535 740.874H354.463V744.84H375.535V740.874Z" fill="#E6E6E6"/>
<path opacity="0.6" d="M319.401 567.222H318.019V744.84H319.401V567.222Z" fill="#E6E6E6"/>
<path opacity="0.6" d="M354.463 567.222H353.081V744.84H354.463V567.222Z" fill="#E6E6E6"/>
<path d="M423.378 557.22H379.853V778.467H423.378V557.22Z" fill="#4D4D4D"/>
<path opacity="0.69" d="M416.988 567.222H384.171V571.189H416.988V567.222Z" fill="#E6E6E6"/>
<path opacity="0.79" d="M416.988 576.362H384.171V580.328H416.988V576.362Z" fill="#E6E6E6"/>
<path opacity="0.19" d="M416.988 585.501H384.171V589.468H416.988V585.501Z" fill="#E6E6E6"/>
<path opacity="0.88" d="M416.988 594.641H384.171V598.607H416.988V594.641Z" fill="#E6E6E6"/>
<path opacity="0.5" d="M416.988 603.78H384.171V607.747H416.988V603.78Z" fill="#E6E6E6"/>
<path opacity="0.25" d="M416.988 612.92H384.171V616.886H416.988V612.92Z" fill="#E6E6E6"/>
<path opacity="0.91" d="M416.988 622.06H384.171V626.026H416.988V622.06Z" fill="#E6E6E6"/>
<path opacity="0.02" d="M416.988 631.199H384.171V635.165H416.988V631.199Z" fill="#E6E6E6"/>
<path opacity="0.53" d="M416.988 640.339H384.171V644.305H416.988V640.339Z" fill="#E6E6E6"/>
<path opacity="0.65" d="M416.988 649.478H384.171V653.444H416.988V649.478Z" fill="#E6E6E6"/>
<path d="M416.988 658.618H384.171V662.584H416.988V658.618Z" fill="#E6E6E6"/>
<path opacity="0.8" d="M416.988 667.757H384.171V671.724H416.988V667.757Z" fill="#E6E6E6"/>
<path opacity="0.82" d="M416.988 676.897H384.171V680.863H416.988V676.897Z" fill="#E6E6E6"/>
<path opacity="0.75" d="M416.988 686.036H384.171V690.003H416.988V686.036Z" fill="#E6E6E6"/>
<path opacity="0.31" d="M416.988 695.176H384.171V699.142H416.988V695.176Z" fill="#E6E6E6"/>
<path opacity="0.22" d="M416.988 704.316H384.171V708.282H416.988V704.316Z" fill="#E6E6E6"/>
<path opacity="0.43" d="M416.988 713.455H384.171V717.422H416.988V713.455Z" fill="#E6E6E6"/>
<path opacity="0.68" d="M416.988 722.595H384.171V726.561H416.988V722.595Z" fill="#E6E6E6"/>
<path opacity="0.38" d="M416.988 731.734H384.171V735.701H416.988V731.734Z" fill="#E6E6E6"/>
<path opacity="0.84" d="M416.988 740.874H384.171V744.84H416.988V740.874Z" fill="#E6E6E6"/>
<path d="M308.001 545.494V557.22H364.481V545.494H308.001ZM320.61 553.427H314.737V549.46H320.61V553.427ZM329.764 553.427H324.064V549.46H329.764V553.427ZM339.091 553.427H333.391V549.46H339.091V553.427ZM348.418 553.427H342.545V549.46H348.418V553.427ZM357.745 553.427H351.872V549.46H357.745V553.427Z" fill="#333333"/>
<path d="M374.844 549.46H373.29V553.427H374.844V549.46Z" fill="#333333"/>
<path d="M364.481 545.494V557.22H391.08V545.494H364.481ZM374.844 553.427H369.144V549.46H374.844V553.427ZM387.107 553.427H381.408V549.46H387.107V553.427Z" fill="#4D4D4D"/>
<path d="M386.935 549.46H385.38V553.427H386.935V549.46Z" fill="#333333"/>
<path d="M391.425 793.468H273.976L391.425 706.901V793.468Z" fill="#333333"/>
<path d="M216.287 510.315H206.787V546.356H216.287V510.315Z" fill="#4D4D4D"/>
<path d="M206.96 510.315H197.288V546.356H206.96V510.315Z" fill="#333333"/>
<path d="M226.132 510.315H216.46V546.356H226.132V510.315Z" fill="#666666"/>
<path d="M254.113 571.016H227.168V776.57H254.113V571.016Z" fill="#666666"/>
<path d="M195.561 571.016H172.071V776.57H195.561V571.016Z" fill="#333333"/>
<path d="M227.168 571.016H195.388V776.57H227.168V571.016Z" fill="#4D4D4D"/>
<path opacity="0.6" d="M178.807 577.051H175.352V773.81H178.807V577.051Z" fill="#E6E6E6"/>
<path opacity="0.6" d="M185.543 577.051H182.088V773.81H185.543V577.051Z" fill="#E6E6E6"/>
<path opacity="0.6" d="M192.279 577.051H188.825V773.81H192.279V577.051Z" fill="#E6E6E6"/>
<path d="M232.523 577.051H229.068V773.81H232.523V577.051Z" fill="#E6E6E6"/>
<path d="M239.259 577.051H235.804V773.81H239.259V577.051Z" fill="#E6E6E6"/>
<path d="M252.385 577.051H248.931V773.81H252.385V577.051Z" fill="#E6E6E6"/>
<path d="M245.995 577.051H242.54V773.81H245.995V577.051Z" fill="#E6E6E6"/>
<path opacity="0.8" d="M199.36 773.81H223.196V577.051H199.36V773.81ZM203.16 580.5H219.396V770.362H203.16V580.5Z" fill="#E6E6E6"/>
<path opacity="0.8" d="M206.269 767.085H216.46V583.604H206.269V767.085ZM209.724 587.915H210.933H211.624H213.005V762.774H211.624H210.933H209.724V587.915Z" fill="#E6E6E6"/>
<path opacity="0.8" d="M211.624 587.915H210.933V762.774H211.624V587.915Z" fill="#E6E6E6"/>
<path d="M223.541 534.975H199.706V571.016H223.541V534.975Z" fill="#4D4D4D"/>
<path d="M223.541 534.975H199.706V571.016H223.541V534.975Z" fill="#4D4D4D"/>
<path d="M247.377 534.975H223.541V571.016H247.377V534.975Z" fill="#666666"/>
<path d="M199.706 534.975H175.87V571.016H199.706V534.975Z" fill="#333333"/>
<path d="M225.959 510.315H197.288L206.787 516.868H216.46L225.959 510.315Z" fill="#808080"/>
<path d="M738.42 497.037H724.603V537.562H738.42V497.037Z" fill="#4D4D4D"/>
<path d="M724.43 497.037H710.612V537.562H724.43V497.037Z" fill="#333333"/>
<path d="M708.021 565.498H674.168V797.091H708.021V565.498Z" fill="#333333"/>
<path d="M753.965 565.498H708.022V797.091H753.965V565.498Z" fill="#4D4D4D"/>
<path opacity="0.4" d="M683.841 572.395H678.832V793.986H683.841V572.395Z" fill="#E6E6E6"/>
<path opacity="0.4" d="M693.686 572.395H688.677V793.986H693.686V572.395Z" fill="#E6E6E6"/>
<path opacity="0.4" d="M703.531 572.395H698.522V793.986H703.531V572.395Z" fill="#E6E6E6"/>
<path d="M713.894 793.986H748.438V572.395H713.894V793.986ZM719.248 576.189H742.738V790.192H719.248V576.189Z" fill="#E6E6E6"/>
<path d="M723.566 786.571H738.42V579.811H723.566V786.571ZM728.748 584.639H730.648H731.512H733.411V781.743H731.512H730.648H728.748V584.639Z" fill="#E6E6E6"/>
<path d="M748.784 524.973H714.24V565.498H748.784V524.973Z" fill="#4D4D4D"/>
<path d="M748.784 524.973H714.24V565.498H748.784V524.973Z" fill="#4D4D4D"/>
<path d="M714.412 524.973H679.868V565.498H714.412V524.973Z" fill="#333333"/>
<path d="M752.411 497.037H710.612L724.603 504.452H738.42L752.411 497.037Z" fill="#808080"/>
<path d="M638.761 597.572H544.283V628.956H638.761V597.572Z" fill="#E6E6E6"/>
<path d="M581.418 597.572H544.283V628.956H581.418V597.572Z" fill="#B3B3B3"/>
<path d="M581.418 629.129H508.011V781.57H581.418V629.129Z" fill="#333333"/>
<path d="M696.104 629.129H581.418V781.57H696.104V629.129Z" fill="#4D4D4D"/>
<path d="M572.436 613.609H515.957V629.129H572.436V613.609Z" fill="#333333"/>
<path d="M679.005 613.609H598.344V629.129H679.005V613.609Z" fill="#4D4D4D"/>
<path d="M613.716 585.673H581.418V597.571H613.716V585.673Z" fill="#E6E6E6"/>
<path d="M597.481 573.602H581.418V585.501H597.481V573.602Z" fill="#4D4D4D"/>
<path d="M581.245 573.602H565.182V585.501H581.245V573.602Z" fill="#333333"/>
<path d="M581.418 585.673H556.719V597.571H581.418V585.673Z" fill="#B3B3B3"/>
<path d="M580.381 573.602L581.418 546.011L582.281 573.602H580.381Z" fill="#333333"/>
<path opacity="0.12" d="M531.156 635.337H525.111V641.372H531.156V635.337Z" fill="white"/>
<path opacity="0.25" d="M539.447 635.337H533.401V641.372H539.447V635.337Z" fill="white"/>
<path opacity="0.36" d="M547.737 635.337H541.692V641.372H547.737V635.337Z" fill="white"/>
<path opacity="0.12" d="M556.028 635.337H549.982V641.372H556.028V635.337Z" fill="white"/>
<path opacity="0.14" d="M564.318 635.337H558.273V641.372H564.318V635.337Z" fill="white"/>
<path opacity="0.28" d="M531.156 643.269H525.111V649.305H531.156V643.269Z" fill="white"/>
<path opacity="0.4" d="M539.447 643.269H533.401V649.305H539.447V643.269Z" fill="white"/>
<path opacity="0.16" d="M547.737 643.269H541.692V649.305H547.737V643.269Z" fill="white"/>
<path opacity="0.17" d="M564.318 643.269H558.273V649.305H564.318V643.269Z" fill="white"/>
<path opacity="0.27" d="M531.156 651.202H525.111V657.237H531.156V651.202Z" fill="white"/>
<path opacity="0.45" d="M539.447 651.202H533.401V657.237H539.447V651.202Z" fill="white"/>
<path opacity="0.45" d="M547.737 651.202H541.692V657.237H547.737V651.202Z" fill="white"/>
<path opacity="0.48" d="M556.028 651.202H549.982V657.237H556.028V651.202Z" fill="white"/>
<path opacity="0.25" d="M564.318 651.202H558.273V657.237H564.318V651.202Z" fill="white"/>
<path opacity="0.28" d="M531.156 659.134H525.111V665.17H531.156V659.134Z" fill="white"/>
<path opacity="0.13" d="M539.447 659.134H533.401V665.17H539.447V659.134Z" fill="white"/>
<path opacity="0.07" d="M547.737 659.134H541.692V665.17H547.737V659.134Z" fill="white"/>
<path opacity="0.39" d="M556.028 659.134H549.982V665.17H556.028V659.134Z" fill="white"/>
<path opacity="0.47" d="M564.318 659.134H558.273V665.17H564.318V659.134Z" fill="white"/>
<path opacity="0.28" d="M531.156 667.066H525.111V673.102H531.156V667.066Z" fill="white"/>
<path opacity="0.2" d="M539.447 667.066H533.401V673.102H539.447V667.066Z" fill="white"/>
<path opacity="0.04" d="M547.737 667.066H541.692V673.102H547.737V667.066Z" fill="white"/>
<path opacity="0.43" d="M556.028 667.066H549.982V673.102H556.028V667.066Z" fill="white"/>
<path opacity="0.48" d="M564.318 667.066H558.273V673.102H564.318V667.066Z" fill="white"/>
<path opacity="0.28" d="M531.156 674.999H525.111V681.035H531.156V674.999Z" fill="white"/>
<path opacity="0.19" d="M539.447 674.999H533.401V681.035H539.447V674.999Z" fill="white"/>
<path opacity="0.01" d="M547.737 674.999H541.692V681.035H547.737V674.999Z" fill="white"/>
<path opacity="0.27" d="M556.028 674.999H549.982V681.035H556.028V674.999Z" fill="white"/>
<path opacity="0.24" d="M564.318 674.999H558.273V681.035H564.318V674.999Z" fill="white"/>
<path opacity="0.07" d="M531.156 683.104H525.111V689.139H531.156V683.104Z" fill="white"/>
<path opacity="0.25" d="M539.447 683.104H533.401V689.139H539.447V683.104Z" fill="white"/>
<path opacity="0.26" d="M547.737 683.104H541.692V689.139H547.737V683.104Z" fill="white"/>
<path opacity="0.39" d="M556.028 683.104H549.982V689.139H556.028V683.104Z" fill="white"/>
<path opacity="0.22" d="M564.318 683.104H558.273V689.139H564.318V683.104Z" fill="white"/>
<path opacity="0.15" d="M531.156 691.036H525.111V697.072H531.156V691.036Z" fill="white"/>
<path opacity="0.23" d="M539.447 691.036H533.401V697.072H539.447V691.036Z" fill="white"/>
<path opacity="0.05" d="M547.737 691.036H541.692V697.072H547.737V691.036Z" fill="white"/>
<path opacity="0.2" d="M556.028 691.036H549.982V697.072H556.028V691.036Z" fill="white"/>
<path opacity="0.31" d="M564.318 691.036H558.273V697.072H564.318V691.036Z" fill="white"/>
<path opacity="0.15" d="M531.156 698.969H525.111V705.004H531.156V698.969Z" fill="white"/>
<path opacity="0.33" d="M539.447 698.969H533.401V705.004H539.447V698.969Z" fill="white"/>
<path opacity="0.46" d="M547.737 698.969H541.692V705.004H547.737V698.969Z" fill="white"/>
<path opacity="0.25" d="M556.028 698.969H549.982V705.004H556.028V698.969Z" fill="white"/>
<path opacity="0.43" d="M564.318 698.969H558.273V705.004H564.318V698.969Z" fill="white"/>
<path opacity="0.4" d="M531.156 706.901H525.111V712.937H531.156V706.901Z" fill="white"/>
<path opacity="0.39" d="M539.447 706.901H533.401V712.937H539.447V706.901Z" fill="white"/>
<path opacity="0.01" d="M547.737 706.901H541.692V712.937H547.737V706.901Z" fill="white"/>
<path opacity="0.12" d="M556.028 706.901H549.982V712.937H556.028V706.901Z" fill="white"/>
<path opacity="0.07" d="M564.318 706.901H558.273V712.937H564.318V706.901Z" fill="white"/>
<path opacity="0.07" d="M531.156 714.834H525.111V720.869H531.156V714.834Z" fill="white"/>
<path opacity="0.02" d="M539.447 714.834H533.401V720.869H539.447V714.834Z" fill="white"/>
<path opacity="0.12" d="M547.737 714.834H541.692V720.869H547.737V714.834Z" fill="white"/>
<path opacity="0.23" d="M556.028 714.834H549.982V720.869H556.028V714.834Z" fill="white"/>
<path opacity="0.26" d="M564.318 714.834H558.273V720.869H564.318V714.834Z" fill="white"/>
<path opacity="0.27" d="M531.156 722.766H525.111V728.802H531.156V722.766Z" fill="white"/>
<path opacity="0.38" d="M539.447 722.766H533.401V728.802H539.447V722.766Z" fill="white"/>
<path opacity="0.05" d="M547.737 722.766H541.692V728.802H547.737V722.766Z" fill="white"/>
<path opacity="0.45" d="M556.028 722.766H549.982V728.802H556.028V722.766Z" fill="white"/>
<path opacity="0.15" d="M564.318 722.766H558.273V728.802H564.318V722.766Z" fill="white"/>
<path opacity="0.06" d="M531.156 730.699H525.111V736.734H531.156V730.699Z" fill="white"/>
<path opacity="0.47" d="M539.447 730.699H533.401V736.734H539.447V730.699Z" fill="white"/>
<path opacity="0.15" d="M547.737 730.699H541.692V736.734H547.737V730.699Z" fill="white"/>
<path opacity="0.44" d="M556.028 730.699H549.982V736.734H556.028V730.699Z" fill="white"/>
<path opacity="0.14" d="M564.318 730.699H558.273V736.734H564.318V730.699Z" fill="white"/>
<path opacity="0.15" d="M531.156 738.631H525.111V744.667H531.156V738.631Z" fill="white"/>
<path opacity="0.43" d="M539.447 738.631H533.401V744.667H539.447V738.631Z" fill="white"/>
<path opacity="0.07" d="M547.737 738.631H541.692V744.667H547.737V738.631Z" fill="white"/>
<path opacity="0.47" d="M556.028 738.631H549.982V744.667H556.028V738.631Z" fill="white"/>
<path opacity="0.11" d="M564.318 738.631H558.273V744.667H564.318V738.631Z" fill="white"/>
<path opacity="0.07" d="M531.156 746.563H525.111V752.599H531.156V746.563Z" fill="white"/>
<path opacity="0.34" d="M539.447 746.563H533.401V752.599H539.447V746.563Z" fill="white"/>
<path opacity="0.5" d="M547.737 746.563H541.692V752.599H547.737V746.563Z" fill="white"/>
<path opacity="0.36" d="M556.028 746.563H549.982V752.599H556.028V746.563Z" fill="white"/>
<path opacity="0.34" d="M564.318 746.563H558.273V752.599H564.318V746.563Z" fill="white"/>
<path opacity="0.47" d="M531.156 754.496H525.111V760.532H531.156V754.496Z" fill="white"/>
<path opacity="0.41" d="M539.447 754.496H533.401V760.532H539.447V754.496Z" fill="white"/>
<path opacity="0.3" d="M547.737 754.496H541.692V760.532H547.737V754.496Z" fill="white"/>
<path opacity="0.33" d="M556.028 754.496H549.982V760.532H556.028V754.496Z" fill="white"/>
<path opacity="0.12" d="M564.318 754.496H558.273V760.532H564.318V754.496Z" fill="white"/>
<path opacity="0.24" d="M531.156 762.428H525.111V768.464H531.156V762.428Z" fill="white"/>
<path opacity="0.29" d="M539.447 762.428H533.401V768.464H539.447V762.428Z" fill="white"/>
<path opacity="0.27" d="M556.028 762.428H549.982V768.464H556.028V762.428Z" fill="white"/>
<path opacity="0.04" d="M564.318 762.428H558.273V768.464H564.318V762.428Z" fill="white"/>
<path opacity="0.11" d="M531.156 770.361H525.111V776.396H531.156V770.361Z" fill="white"/>
<path opacity="0.05" d="M539.447 770.361H533.401V776.396H539.447V770.361Z" fill="white"/>
<path opacity="0.04" d="M547.737 770.361H541.692V776.396H547.737V770.361Z" fill="white"/>
<path opacity="0.02" d="M556.028 770.361H549.982V776.396H556.028V770.361Z" fill="white"/>
<path opacity="0.3" d="M601.453 635.337H595.408V641.372H601.453V635.337Z" fill="white"/>
<path opacity="0.72" d="M609.398 635.337H603.353V641.372H609.398V635.337Z" fill="white"/>
<path opacity="0.7" d="M617.516 635.337H611.471V641.372H617.516V635.337Z" fill="white"/>
<path opacity="0.52" d="M625.634 635.337H619.589V641.372H625.634V635.337Z" fill="white"/>
<path opacity="0.2" d="M633.752 635.337H627.706V641.372H633.752V635.337Z" fill="white"/>
<path opacity="0.32" d="M641.697 635.337H635.652V641.372H641.697V635.337Z" fill="white"/>
<path opacity="0.13" d="M649.815 635.337H643.77V641.372H649.815V635.337Z" fill="white"/>
<path opacity="0.38" d="M657.933 635.337H651.887V641.372H657.933V635.337Z" fill="white"/>
<path opacity="0.61" d="M665.878 635.337H659.833V641.372H665.878V635.337Z" fill="white"/>
<path d="M673.996 635.337H667.95V641.372H673.996V635.337Z" fill="white"/>
<path opacity="0.91" d="M682.113 635.337H676.068V641.372H682.113V635.337Z" fill="white"/>
<path opacity="0.66" d="M601.453 643.269H595.408V649.305H601.453V643.269Z" fill="white"/>
<path opacity="0.31" d="M609.398 643.269H603.353V649.305H609.398V643.269Z" fill="white"/>
<path opacity="0.95" d="M617.516 643.269H611.471V649.305H617.516V643.269Z" fill="white"/>
<path opacity="0.7" d="M625.634 643.269H619.589V649.305H625.634V643.269Z" fill="white"/>
<path opacity="0.12" d="M633.752 643.269H627.706V649.305H633.752V643.269Z" fill="white"/>
<path opacity="0.24" d="M641.697 643.269H635.652V649.305H641.697V643.269Z" fill="white"/>
<path opacity="0.66" d="M649.815 643.269H643.77V649.305H649.815V643.269Z" fill="white"/>
<path opacity="0.71" d="M657.933 643.269H651.887V649.305H657.933V643.269Z" fill="white"/>
<path opacity="0.42" d="M665.878 643.269H659.833V649.305H665.878V643.269Z" fill="white"/>
<path opacity="0.09" d="M673.996 643.269H667.95V649.305H673.996V643.269Z" fill="white"/>
<path opacity="0.32" d="M682.113 643.269H676.068V649.305H682.113V643.269Z" fill="white"/>
<path opacity="0.65" d="M601.453 651.202H595.408V657.237H601.453V651.202Z" fill="white"/>
<path d="M609.398 651.202H603.353V657.237H609.398V651.202Z" fill="white"/>
<path d="M617.516 651.202H611.471V657.237H617.516V651.202Z" fill="white"/>
<path opacity="0.71" d="M625.634 651.202H619.589V657.237H625.634V651.202Z" fill="white"/>
<path opacity="0.2" d="M633.752 651.202H627.706V657.237H633.752V651.202Z" fill="white"/>
<path opacity="0.19" d="M641.697 651.202H635.652V657.237H641.697V651.202Z" fill="white"/>
<path opacity="0.62" d="M649.815 651.202H643.77V657.237H649.815V651.202Z" fill="white"/>
<path opacity="0.93" d="M657.933 651.202H651.887V657.237H657.933V651.202Z" fill="white"/>
<path opacity="0.56" d="M665.878 651.202H659.833V657.237H665.878V651.202Z" fill="white"/>
<path opacity="0.57" d="M673.996 651.202H667.95V657.237H673.996V651.202Z" fill="white"/>
<path opacity="0.52" d="M682.113 651.202H676.068V657.237H682.113V651.202Z" fill="white"/>
<path opacity="0.74" d="M601.453 659.134H595.408V665.17H601.453V659.134Z" fill="white"/>
<path opacity="0.56" d="M609.398 659.134H603.353V665.17H609.398V659.134Z" fill="white"/>
<path opacity="0.78" d="M617.516 659.134H611.471V665.17H617.516V659.134Z" fill="white"/>
<path opacity="0.41" d="M625.634 659.134H619.589V665.17H625.634V659.134Z" fill="white"/>
<path opacity="0.14" d="M633.752 659.134H627.706V665.17H633.752V659.134Z" fill="white"/>
<path opacity="0.28" d="M641.697 659.134H635.652V665.17H641.697V659.134Z" fill="white"/>
<path opacity="0.36" d="M649.815 659.134H643.77V665.17H649.815V659.134Z" fill="white"/>
<path opacity="0.14" d="M657.933 659.134H651.887V665.17H657.933V659.134Z" fill="white"/>
<path opacity="0.5" d="M665.878 659.134H659.833V665.17H665.878V659.134Z" fill="white"/>
<path opacity="0.98" d="M673.996 659.134H667.95V665.17H673.996V659.134Z" fill="white"/>
<path opacity="0.59" d="M682.113 659.134H676.068V665.17H682.113V659.134Z" fill="white"/>
<path opacity="0.07" d="M601.453 667.066H595.408V673.102H601.453V667.066Z" fill="white"/>
<path opacity="0.1" d="M609.398 667.066H603.353V673.102H609.398V667.066Z" fill="white"/>
<path opacity="0.88" d="M617.516 667.066H611.471V673.102H617.516V667.066Z" fill="white"/>
<path opacity="0.68" d="M625.634 667.066H619.589V673.102H625.634V667.066Z" fill="white"/>
<path opacity="0.81" d="M633.752 667.066H627.706V673.102H633.752V667.066Z" fill="white"/>
<path opacity="0.62" d="M641.697 667.066H635.652V673.102H641.697V667.066Z" fill="white"/>
<path opacity="0.97" d="M649.815 667.066H643.77V673.102H649.815V667.066Z" fill="white"/>
<path opacity="0.81" d="M657.933 667.066H651.887V673.102H657.933V667.066Z" fill="white"/>
<path opacity="0.79" d="M665.878 667.066H659.833V673.102H665.878V667.066Z" fill="white"/>
<path opacity="0.03" d="M673.996 667.066H667.95V673.102H673.996V667.066Z" fill="white"/>
<path opacity="0.95" d="M682.113 667.066H676.068V673.102H682.113V667.066Z" fill="white"/>
<path opacity="0.62" d="M601.453 674.999H595.408V681.035H601.453V674.999Z" fill="white"/>
<path opacity="0.22" d="M609.398 674.999H603.353V681.035H609.398V674.999Z" fill="white"/>
<path opacity="0.42" d="M617.516 674.999H611.471V681.035H617.516V674.999Z" fill="white"/>
<path opacity="0.56" d="M625.634 674.999H619.589V681.035H625.634V674.999Z" fill="white"/>
<path opacity="0.03" d="M633.752 674.999H627.706V681.035H633.752V674.999Z" fill="white"/>
<path opacity="0.64" d="M641.697 674.999H635.652V681.035H641.697V674.999Z" fill="white"/>
<path opacity="0.82" d="M649.815 674.999H643.77V681.035H649.815V674.999Z" fill="white"/>
<path opacity="0.52" d="M657.933 674.999H651.887V681.035H657.933V674.999Z" fill="white"/>
<path opacity="0.46" d="M665.878 674.999H659.833V681.035H665.878V674.999Z" fill="white"/>
<path opacity="0.27" d="M673.996 674.999H667.95V681.035H673.996V674.999Z" fill="white"/>
<path opacity="0.46" d="M682.113 674.999H676.068V681.035H682.113V674.999Z" fill="white"/>
<path opacity="0.66" d="M601.453 683.104H595.408V689.139H601.453V683.104Z" fill="white"/>
<path opacity="0.7" d="M609.398 683.104H603.353V689.139H609.398V683.104Z" fill="white"/>
<path opacity="0.94" d="M617.516 683.104H611.471V689.139H617.516V683.104Z" fill="white"/>
<path opacity="0.5" d="M625.634 683.104H619.589V689.139H625.634V683.104Z" fill="white"/>
<path opacity="0.12" d="M633.752 683.104H627.706V689.139H633.752V683.104Z" fill="white"/>
<path opacity="0.36" d="M641.697 683.104H635.652V689.139H641.697V683.104Z" fill="white"/>
<path opacity="0.51" d="M649.815 683.104H643.77V689.139H649.815V683.104Z" fill="white"/>
<path opacity="0.37" d="M657.933 683.104H651.887V689.139H657.933V683.104Z" fill="white"/>
<path opacity="0.66" d="M665.878 683.104H659.833V689.139H665.878V683.104Z" fill="white"/>
<path opacity="0.42" d="M673.996 683.104H667.95V689.139H673.996V683.104Z" fill="white"/>
<path opacity="0.5" d="M682.113 683.104H676.068V689.139H682.113V683.104Z" fill="white"/>
<path opacity="0.52" d="M601.453 691.036H595.408V697.072H601.453V691.036Z" fill="white"/>
<path opacity="0.61" d="M609.398 691.036H603.353V697.072H609.398V691.036Z" fill="white"/>
<path opacity="0.84" d="M617.516 691.036H611.471V697.072H617.516V691.036Z" fill="white"/>
<path opacity="0.89" d="M625.634 691.036H619.589V697.072H625.634V691.036Z" fill="white"/>
<path opacity="0.33" d="M633.752 691.036H627.706V697.072H633.752V691.036Z" fill="white"/>
<path opacity="0.25" d="M641.697 691.036H635.652V697.072H641.697V691.036Z" fill="white"/>
<path opacity="0.95" d="M649.815 691.036H643.77V697.072H649.815V691.036Z" fill="white"/>
<path opacity="0.09" d="M657.933 691.036H651.887V697.072H657.933V691.036Z" fill="white"/>
<path opacity="0.44" d="M665.878 691.036H659.833V697.072H665.878V691.036Z" fill="white"/>
<path opacity="0.51" d="M673.996 691.036H667.95V697.072H673.996V691.036Z" fill="white"/>
<path opacity="0.97" d="M682.113 691.036H676.068V697.072H682.113V691.036Z" fill="white"/>
<path opacity="0.26" d="M601.453 698.969H595.408V705.004H601.453V698.969Z" fill="white"/>
<path opacity="0.92" d="M609.398 698.969H603.353V705.004H609.398V698.969Z" fill="white"/>
<path opacity="0.33" d="M617.516 698.969H611.471V705.004H617.516V698.969Z" fill="white"/>
<path opacity="0.23" d="M625.634 698.969H619.589V705.004H625.634V698.969Z" fill="white"/>
<path opacity="0.42" d="M633.752 698.969H627.706V705.004H633.752V698.969Z" fill="white"/>
<path opacity="0.57" d="M641.697 698.969H635.652V705.004H641.697V698.969Z" fill="white"/>
<path opacity="0.73" d="M649.815 698.969H643.77V705.004H649.815V698.969Z" fill="white"/>
<path opacity="0.87" d="M657.933 698.969H651.887V705.004H657.933V698.969Z" fill="white"/>
<path opacity="0.22" d="M665.878 698.969H659.833V705.004H665.878V698.969Z" fill="white"/>
<path opacity="0.89" d="M673.996 698.969H667.95V705.004H673.996V698.969Z" fill="white"/>
<path opacity="0.73" d="M682.113 698.969H676.068V705.004H682.113V698.969Z" fill="white"/>
<path opacity="0.35" d="M601.453 706.901H595.408V712.937H601.453V706.901Z" fill="white"/>
<path opacity="0.81" d="M609.398 706.901H603.353V712.937H609.398V706.901Z" fill="white"/>
<path opacity="0.56" d="M617.516 706.901H611.471V712.937H617.516V706.901Z" fill="white"/>
<path opacity="0.81" d="M625.634 706.901H619.589V712.937H625.634V706.901Z" fill="white"/>
<path opacity="0.87" d="M633.752 706.901H627.706V712.937H633.752V706.901Z" fill="white"/>
<path opacity="0.39" d="M641.697 706.901H635.652V712.937H641.697V706.901Z" fill="white"/>
<path opacity="0.31" d="M649.815 706.901H643.77V712.937H649.815V706.901Z" fill="white"/>
<path opacity="0.98" d="M657.933 706.901H651.887V712.937H657.933V706.901Z" fill="white"/>
<path opacity="0.17" d="M665.878 706.901H659.833V712.937H665.878V706.901Z" fill="white"/>
<path opacity="0.06" d="M673.996 706.901H667.95V712.937H673.996V706.901Z" fill="white"/>
<path opacity="0.57" d="M682.113 706.901H676.068V712.937H682.113V706.901Z" fill="white"/>
<path opacity="0.67" d="M601.453 714.834H595.408V720.869H601.453V714.834Z" fill="white"/>
<path opacity="0.83" d="M609.398 714.834H603.353V720.869H609.398V714.834Z" fill="white"/>
<path opacity="0.99" d="M617.516 714.834H611.471V720.869H617.516V714.834Z" fill="white"/>
<path opacity="0.62" d="M625.634 714.834H619.589V720.869H625.634V714.834Z" fill="white"/>
<path opacity="0.87" d="M633.752 714.834H627.706V720.869H633.752V714.834Z" fill="white"/>
<path opacity="0.14" d="M641.697 714.834H635.652V720.869H641.697V714.834Z" fill="white"/>
<path opacity="0.12" d="M649.815 714.834H643.77V720.869H649.815V714.834Z" fill="white"/>
<path opacity="0.11" d="M657.933 714.834H651.887V720.869H657.933V714.834Z" fill="white"/>
<path opacity="0.39" d="M665.878 714.834H659.833V720.869H665.878V714.834Z" fill="white"/>
<path opacity="0.58" d="M673.996 714.834H667.95V720.869H673.996V714.834Z" fill="white"/>
<path opacity="0.54" d="M682.113 714.834H676.068V720.869H682.113V714.834Z" fill="white"/>
<path opacity="0.99" d="M601.453 722.766H595.408V728.802H601.453V722.766Z" fill="white"/>
<path opacity="0.28" d="M609.398 722.766H603.353V728.802H609.398V722.766Z" fill="white"/>
<path opacity="0.78" d="M617.516 722.766H611.471V728.802H617.516V722.766Z" fill="white"/>
<path opacity="0.65" d="M625.634 722.766H619.589V728.802H625.634V722.766Z" fill="white"/>
<path opacity="0.32" d="M633.752 722.766H627.706V728.802H633.752V722.766Z" fill="white"/>
<path opacity="0.55" d="M641.697 722.766H635.652V728.802H641.697V722.766Z" fill="white"/>
<path opacity="0.4" d="M649.815 722.766H643.77V728.802H649.815V722.766Z" fill="white"/>
<path opacity="0.22" d="M657.933 722.766H651.887V728.802H657.933V722.766Z" fill="white"/>
<path opacity="0.87" d="M665.878 722.766H659.833V728.802H665.878V722.766Z" fill="white"/>
<path opacity="0.02" d="M673.996 722.766H667.95V728.802H673.996V722.766Z" fill="white"/>
<path opacity="0.39" d="M682.113 722.766H676.068V728.802H682.113V722.766Z" fill="white"/>
<path opacity="0.89" d="M601.453 730.699H595.408V736.734H601.453V730.699Z" fill="white"/>
<path opacity="0.97" d="M609.398 730.699H603.353V736.734H609.398V730.699Z" fill="white"/>
<path opacity="0.79" d="M617.516 730.699H611.471V736.734H617.516V730.699Z" fill="white"/>
<path opacity="0.41" d="M625.634 730.699H619.589V736.734H625.634V730.699Z" fill="white"/>
<path opacity="0.13" d="M633.752 730.699H627.706V736.734H633.752V730.699Z" fill="white"/>
<path opacity="0.9" d="M641.697 730.699H635.652V736.734H641.697V730.699Z" fill="white"/>
<path opacity="0.98" d="M649.815 730.699H643.77V736.734H649.815V730.699Z" fill="white"/>
<path opacity="0.67" d="M657.933 730.699H651.887V736.734H657.933V730.699Z" fill="white"/>
<path opacity="0.65" d="M665.878 730.699H659.833V736.734H665.878V730.699Z" fill="white"/>
<path opacity="0.89" d="M673.996 730.699H667.95V736.734H673.996V730.699Z" fill="white"/>
<path opacity="0.98" d="M682.113 730.699H676.068V736.734H682.113V730.699Z" fill="white"/>
<path opacity="0.29" d="M601.453 738.631H595.408V744.667H601.453V738.631Z" fill="white"/>
<path opacity="0.74" d="M609.398 738.631H603.353V744.667H609.398V738.631Z" fill="white"/>
<path opacity="0.64" d="M617.516 738.631H611.471V744.667H617.516V738.631Z" fill="white"/>
<path opacity="0.65" d="M625.634 738.631H619.589V744.667H625.634V738.631Z" fill="white"/>
<path opacity="0.07" d="M633.752 738.631H627.706V744.667H633.752V738.631Z" fill="white"/>
<path opacity="0.16" d="M641.697 738.631H635.652V744.667H641.697V738.631Z" fill="white"/>
<path opacity="0.84" d="M649.815 738.631H643.77V744.667H649.815V738.631Z" fill="white"/>
<path opacity="0.88" d="M657.933 738.631H651.887V744.667H657.933V738.631Z" fill="white"/>
<path opacity="0.57" d="M665.878 738.631H659.833V744.667H665.878V738.631Z" fill="white"/>
<path opacity="0.31" d="M673.996 738.631H667.95V744.667H673.996V738.631Z" fill="white"/>
<path opacity="0.03" d="M682.113 738.631H676.068V744.667H682.113V738.631Z" fill="white"/>
<path opacity="0.3" d="M601.453 746.563H595.408V752.599H601.453V746.563Z" fill="white"/>
<path opacity="0.59" d="M609.398 746.563H603.353V752.599H609.398V746.563Z" fill="white"/>
<path opacity="0.93" d="M617.516 746.563H611.471V752.599H617.516V746.563Z" fill="white"/>
<path opacity="0.06" d="M625.634 746.563H619.589V752.599H625.634V746.563Z" fill="white"/>
<path opacity="0.74" d="M633.752 746.563H627.706V752.599H633.752V746.563Z" fill="white"/>
<path opacity="0.22" d="M641.697 746.563H635.652V752.599H641.697V746.563Z" fill="white"/>
<path opacity="0.51" d="M649.815 746.563H643.77V752.599H649.815V746.563Z" fill="white"/>
<path opacity="0.7" d="M657.933 746.563H651.887V752.599H657.933V746.563Z" fill="white"/>
<path opacity="0.47" d="M665.878 746.563H659.833V752.599H665.878V746.563Z" fill="white"/>
<path opacity="0.08" d="M673.996 746.563H667.95V752.599H673.996V746.563Z" fill="white"/>
<path opacity="0.93" d="M682.113 746.563H676.068V752.599H682.113V746.563Z" fill="white"/>
<path opacity="0.81" d="M601.453 754.496H595.408V760.532H601.453V754.496Z" fill="white"/>
<path opacity="0.9" d="M609.398 754.496H603.353V760.532H609.398V754.496Z" fill="white"/>
<path opacity="0.55" d="M617.516 754.496H611.471V760.532H617.516V754.496Z" fill="white"/>
<path opacity="0.14" d="M625.634 754.496H619.589V760.532H625.634V754.496Z" fill="white"/>
<path opacity="0.66" d="M633.752 754.496H627.706V760.532H633.752V754.496Z" fill="white"/>
<path opacity="0.92" d="M641.697 754.496H635.652V760.532H641.697V754.496Z" fill="white"/>
<path opacity="0.4" d="M649.815 754.496H643.77V760.532H649.815V754.496Z" fill="white"/>
<path opacity="0.6" d="M657.933 754.496H651.887V760.532H657.933V754.496Z" fill="white"/>
<path opacity="0.99" d="M665.878 754.496H659.833V760.532H665.878V754.496Z" fill="white"/>
<path opacity="0.68" d="M673.996 754.496H667.95V760.532H673.996V754.496Z" fill="white"/>
<path opacity="0.01" d="M682.113 754.496H676.068V760.532H682.113V754.496Z" fill="white"/>
<path opacity="0.82" d="M601.453 762.428H595.408V768.464H601.453V762.428Z" fill="white"/>
<path opacity="0.92" d="M609.398 762.428H603.353V768.464H609.398V762.428Z" fill="white"/>
<path opacity="0.29" d="M617.516 762.428H611.471V768.464H617.516V762.428Z" fill="white"/>
<path opacity="0.73" d="M625.634 762.428H619.589V768.464H625.634V762.428Z" fill="white"/>
<path opacity="0.42" d="M633.752 762.428H627.706V768.464H633.752V762.428Z" fill="white"/>
<path opacity="0.06" d="M641.697 762.428H635.652V768.464H641.697V762.428Z" fill="white"/>
<path opacity="0.7" d="M649.815 762.428H643.77V768.464H649.815V762.428Z" fill="white"/>
<path opacity="0.97" d="M657.933 762.428H651.887V768.464H657.933V762.428Z" fill="white"/>
<path opacity="0.51" d="M665.878 762.428H659.833V768.464H665.878V762.428Z" fill="white"/>
<path opacity="0.69" d="M673.996 762.428H667.95V768.464H673.996V762.428Z" fill="white"/>
<path opacity="0.49" d="M682.113 762.428H676.068V768.464H682.113V762.428Z" fill="white"/>
<path opacity="0.45" d="M601.453 770.361H595.408V776.396H601.453V770.361Z" fill="white"/>
<path opacity="0.46" d="M609.398 770.361H603.353V776.396H609.398V770.361Z" fill="white"/>
<path opacity="0.04" d="M617.516 770.361H611.471V776.396H617.516V770.361Z" fill="white"/>
<path opacity="0.56" d="M625.634 770.361H619.589V776.396H625.634V770.361Z" fill="white"/>
<path opacity="0.4" d="M633.752 770.361H627.706V776.396H633.752V770.361Z" fill="white"/>
<path opacity="0.59" d="M641.697 770.361H635.652V776.396H641.697V770.361Z" fill="white"/>
<path opacity="0.82" d="M649.815 770.361H643.77V776.396H649.815V770.361Z" fill="white"/>
<path opacity="0.99" d="M657.933 770.361H651.887V776.396H657.933V770.361Z" fill="white"/>
<path opacity="0.1" d="M665.878 770.361H659.833V776.396H665.878V770.361Z" fill="white"/>
<path opacity="0.87" d="M673.996 770.361H667.95V776.396H673.996V770.361Z" fill="white"/>
<path d="M682.113 770.361H676.068V776.396H682.113V770.361Z" fill="white"/>
<path d="M499.375 596.537H442.378V774.845H499.375V596.537Z" fill="#333333"/>
<path d="M468.286 587.57H442.378V597.572H468.286V587.57Z" fill="#333333"/>
<path d="M457.404 581.707H442.378V587.57H457.404V581.707Z" fill="#333333"/>
<path opacity="0.25" d="M475.367 609.126H466.04V618.438H475.367V609.126Z" fill="white"/>
<path opacity="0.15" d="M475.367 632.061H466.04V641.373H475.367V632.061Z" fill="white"/>
<path opacity="0.19" d="M475.367 677.758H466.04V687.07H475.367V677.758Z" fill="white"/>
<path opacity="0.17" d="M475.367 700.521H466.04V709.833H475.367V700.521Z" fill="white"/>
<path opacity="0.22" d="M475.367 723.284H466.04V732.596H475.367V723.284Z" fill="white"/>
<path d="M475.367 746.219H466.04V755.531H475.367V746.219Z" fill="white"/>
<path d="M457.059 695.865H403.688V711.557H457.059V695.865Z" fill="#333333"/>
<path d="M483.658 695.865H457.059V711.557H483.658V695.865Z" fill="#4D4D4D"/>
<path d="M403.688 695.865L420.27 687.933L457.059 695.865H403.688Z" fill="#333333"/>
<path d="M420.27 687.933L457.059 695.865H483.658L420.27 687.933Z" fill="#4D4D4D"/>
<path d="M469.495 706.901H391.425V778.293H469.495V706.901Z" fill="#333333"/>
<path d="M495.403 706.901H469.495V778.293H495.403V706.901Z" fill="#4D4D4D"/>
<path opacity="0.81" d="M489.358 711.902H475.367V717.076H489.358V711.902Z" fill="white"/>
<path opacity="0.76" d="M489.358 721.387H475.367V726.56H489.358V721.387Z" fill="white"/>
<path opacity="0.32" d="M489.358 730.871H475.367V736.045H489.358V730.871Z" fill="white"/>
<path opacity="0.49" d="M489.358 740.528H475.367V745.701H489.358V740.528Z" fill="white"/>
<path opacity="0.99" d="M489.358 759.497H475.367V764.67H489.358V759.497Z" fill="white"/>
<path opacity="0.1" d="M417.852 711.902H403.861V717.076H417.852V711.902Z" fill="white"/>
<path opacity="0.04" d="M437.369 711.902H423.378V717.076H437.369V711.902Z" fill="white"/>
<path opacity="0.07" d="M457.059 711.902H443.069V717.076H457.059V711.902Z" fill="white"/>
<path opacity="0.06" d="M417.852 721.387H403.861V726.56H417.852V721.387Z" fill="white"/>
<path opacity="0.44" d="M437.369 721.387H423.378V726.56H437.369V721.387Z" fill="white"/>
<path opacity="0.24" d="M457.059 721.387H443.069V726.56H457.059V721.387Z" fill="white"/>
<path opacity="0.55" d="M417.852 730.871H403.861V736.045H417.852V730.871Z" fill="white"/>
<path opacity="0.02" d="M437.369 730.871H423.378V736.045H437.369V730.871Z" fill="white"/>
<path opacity="0.14" d="M457.059 730.871H443.069V736.045H457.059V730.871Z" fill="white"/>
<path opacity="0.43" d="M417.852 740.528H403.861V745.701H417.852V740.528Z" fill="white"/>
<path opacity="0.41" d="M437.369 740.528H423.378V745.701H437.369V740.528Z" fill="white"/>
<path opacity="0.46" d="M457.059 740.528H443.069V745.701H457.059V740.528Z" fill="white"/>
<path opacity="0.45" d="M417.852 750.013H403.861V755.186H417.852V750.013Z" fill="white"/>
<path opacity="0.33" d="M437.369 750.013H423.378V755.186H437.369V750.013Z" fill="white"/>
<path opacity="0.05" d="M457.059 750.013H443.069V755.186H457.059V750.013Z" fill="white"/>
<path opacity="0.27" d="M417.852 759.497H403.861V764.671H417.852V759.497Z" fill="white"/>
<path opacity="0.15" d="M437.369 759.497H423.378V764.671H437.369V759.497Z" fill="white"/>
<path opacity="0.7" d="M457.059 759.497H443.069V764.671H457.059V759.497Z" fill="white"/>
<path d="M89.6829 635.51H41.3212V784.329H89.6829V635.51Z" fill="#333333"/>
<path d="M144.781 635.51H89.8556V784.329H144.781V635.51Z" fill="#4D4D4D"/>
<path d="M89.6829 648.098H41.3212V650.685H89.6829V648.098Z" fill="#4D4D4D"/>
<path d="M144.781 648.098H89.8556V650.685H144.781V648.098Z" fill="#333333"/>
<path opacity="0.32" d="M64.6385 653.617H59.4568V658.79H64.6385V653.617Z" fill="white"/>
<path opacity="0.25" d="M71.72 653.617H66.5383V658.79H71.72V653.617Z" fill="white"/>
<path opacity="0.12" d="M85.8831 653.617H80.7014V658.79H85.8831V653.617Z" fill="white"/>
<path opacity="0.22" d="M64.6385 660.687H59.4568V665.86H64.6385V660.687Z" fill="white"/>
<path opacity="0.47" d="M71.72 660.687H66.5383V665.86H71.72V660.687Z" fill="white"/>
<path opacity="0.22" d="M78.8014 660.687H73.6199V665.86H78.8014V660.687Z" fill="white"/>
<path opacity="0.32" d="M85.8831 660.687H80.7014V665.86H85.8831V660.687Z" fill="white"/>
<path opacity="0.18" d="M64.6385 667.757H59.4568V672.93H64.6385V667.757Z" fill="white"/>
<path opacity="0.28" d="M71.72 667.757H66.5383V672.93H71.72V667.757Z" fill="white"/>
<path opacity="0.2" d="M85.8831 667.757H80.7014V672.93H85.8831V667.757Z" fill="white"/>
<path opacity="0.33" d="M64.6385 674.827H59.4568V680.001H64.6385V674.827Z" fill="white"/>
<path opacity="0.05" d="M71.72 674.827H66.5383V680.001H71.72V674.827Z" fill="white"/>
<path opacity="0.08" d="M78.8014 674.827H73.6199V680.001H78.8014V674.827Z" fill="white"/>
<path opacity="0.08" d="M71.72 681.897H66.5383V687.071H71.72V681.897Z" fill="white"/>
<path opacity="0.02" d="M78.8014 681.897H73.6199V687.071H78.8014V681.897Z" fill="white"/>
<path opacity="0.05" d="M64.6385 688.968H59.4568V694.141H64.6385V688.968Z" fill="white"/>
<path opacity="0.2" d="M71.72 688.968H66.5383V694.141H71.72V688.968Z" fill="white"/>
<path opacity="0.23" d="M78.8014 688.968H73.6199V694.141H78.8014V688.968Z" fill="white"/>
<path opacity="0.14" d="M64.6385 696.038H59.4568V701.211H64.6385V696.038Z" fill="white"/>
<path opacity="0.24" d="M78.8014 696.038H73.6199V701.211H78.8014V696.038Z" fill="white"/>
<path opacity="0.23" d="M64.6385 703.108H59.4568V708.281H64.6385V703.108Z" fill="white"/>
<path opacity="0.02" d="M71.72 703.108H66.5383V708.281H71.72V703.108Z" fill="white"/>
<path opacity="0.04" d="M78.8014 703.108H73.6199V708.281H78.8014V703.108Z" fill="white"/>
<path opacity="0.3" d="M85.8831 703.108H80.7014V708.281H85.8831V703.108Z" fill="white"/>
<path opacity="0.4" d="M85.8831 710.006H80.7014V715.179H85.8831V710.006Z" fill="white"/>
<path opacity="0.12" d="M64.6385 717.076H59.4568V722.25H64.6385V717.076Z" fill="white"/>
<path opacity="0.19" d="M78.8014 717.076H73.6199V722.25H78.8014V717.076Z" fill="white"/>
<path opacity="0.43" d="M85.8831 717.076H80.7014V722.25H85.8831V717.076Z" fill="white"/>
<path opacity="0.42" d="M71.72 724.146H66.5383V729.32H71.72V724.146Z" fill="white"/>
<path opacity="0.31" d="M85.8831 724.146H80.7014V729.32H85.8831V724.146Z" fill="white"/>
<path opacity="0.31" d="M71.72 731.217H66.5383V736.39H71.72V731.217Z" fill="white"/>
<path opacity="0.33" d="M85.8831 731.217H80.7014V736.39H85.8831V731.217Z" fill="white"/>
<path opacity="0.17" d="M71.72 738.287H66.5383V743.46H71.72V738.287Z" fill="white"/>
<path opacity="0.01" d="M78.8014 738.287H73.6199V743.46H78.8014V738.287Z" fill="white"/>
<path opacity="0.48" d="M85.8831 738.287H80.7014V743.46H85.8831V738.287Z" fill="white"/>
<path opacity="0.28" d="M64.6385 745.357H59.4568V750.53H64.6385V745.357Z" fill="white"/>
<path opacity="0.02" d="M71.72 745.357H66.5383V750.53H71.72V745.357Z" fill="white"/>
<path opacity="0.17" d="M78.8014 745.357H73.6199V750.53H78.8014V745.357Z" fill="white"/>
<path opacity="0.42" d="M85.8831 745.357H80.7014V750.53H85.8831V745.357Z" fill="white"/>
<path opacity="0.11" d="M64.6385 752.427H59.4568V757.601H64.6385V752.427Z" fill="white"/>
<path opacity="0.02" d="M71.72 752.427H66.5383V757.601H71.72V752.427Z" fill="white"/>
<path opacity="0.3" d="M85.8831 752.427H80.7014V757.601H85.8831V752.427Z" fill="white"/>
<path opacity="0.19" d="M64.6385 759.498H59.4568V764.671H64.6385V759.498Z" fill="white"/>
<path opacity="0.05" d="M71.72 759.498H66.5383V764.671H71.72V759.498Z" fill="white"/>
<path opacity="0.2" d="M85.8831 759.498H80.7014V764.671H85.8831V759.498Z" fill="white"/>
<path opacity="0.27" d="M71.72 766.568H66.5383V771.741H71.72V766.568Z" fill="white"/>
<path opacity="0.13" d="M78.8014 766.568H73.6199V771.741H78.8014V766.568Z" fill="white"/>
<path opacity="0.46" d="M64.6385 773.638H59.4568V778.811H64.6385V773.638Z" fill="white"/>
<path opacity="0.12" d="M71.72 773.638H66.5383V778.811H71.72V773.638Z" fill="white"/>
<path opacity="0.04" d="M78.8014 773.638H73.6199V778.811H78.8014V773.638Z" fill="white"/>
<path opacity="0.3" d="M85.8831 773.638H80.7014V778.811H85.8831V773.638Z" fill="white"/>
<path opacity="0.08" d="M78.8014 653.617H73.6199V658.79H78.8014V653.617Z" fill="white"/>
<path opacity="0.08" d="M78.8014 667.757H73.6199V672.93H78.8014V667.757Z" fill="white"/>
<path opacity="0.01" d="M85.8831 674.827H80.7014V680.001H85.8831V674.827Z" fill="white"/>
<path opacity="0.15" d="M64.6385 681.897H59.4568V687.071H64.6385V681.897Z" fill="white"/>
<path opacity="0.12" d="M85.8831 681.897H80.7014V687.071H85.8831V681.897Z" fill="white"/>
<path opacity="0.13" d="M71.72 696.038H66.5383V701.211H71.72V696.038Z" fill="white"/>
<path opacity="0.07" d="M85.8831 696.038H80.7014V701.211H85.8831V696.038Z" fill="white"/>
<path opacity="0.02" d="M64.6385 710.006H59.4568V715.179H64.6385V710.006Z" fill="white"/>
<path opacity="0.02" d="M71.72 710.006H66.5383V715.179H71.72V710.006Z" fill="white"/>
<path opacity="0.14" d="M78.8014 710.006H73.6199V715.179H78.8014V710.006Z" fill="white"/>
<path opacity="0.09" d="M64.6385 724.146H59.4568V729.32H64.6385V724.146Z" fill="white"/>
<path opacity="0.02" d="M78.8014 724.146H73.6199V729.32H78.8014V724.146Z" fill="white"/>
<path opacity="0.19" d="M64.6385 731.217H59.4568V736.39H64.6385V731.217Z" fill="white"/>
<path opacity="0.06" d="M78.8014 731.217H73.6199V736.39H78.8014V731.217Z" fill="white"/>
<path opacity="0.16" d="M64.6385 738.287H59.4568V743.46H64.6385V738.287Z" fill="white"/>
<path opacity="0.04" d="M78.8014 752.427H73.6199V757.601H78.8014V752.427Z" fill="white"/>
<path opacity="0.04" d="M78.8014 759.498H73.6199V764.671H78.8014V759.498Z" fill="white"/>
<path opacity="0.18" d="M85.8831 766.568H80.7014V771.741H85.8831V766.568Z" fill="white"/>
<g opacity="0.7">
<path opacity="0.7" d="M100.219 650.685H94.8645V777.776H100.219V650.685Z" fill="#E6E6E6"/>
<path opacity="0.7" d="M109.373 650.685H104.019V777.776H109.373V650.685Z" fill="#E6E6E6"/>
<path opacity="0.7" d="M118.7 650.685H113.346V777.776H118.7V650.685Z" fill="#E6E6E6"/>
<path opacity="0.7" d="M128.027 650.685H122.672V777.776H128.027V650.685Z" fill="#E6E6E6"/>
<path opacity="0.7" d="M137.354 650.685H131.999V777.776H137.354V650.685Z" fill="#E6E6E6"/>
</g>
<path d="M172.416 777.777H64.9839L172.416 684.312V777.777Z" fill="#333333"/>
<path d="M163.262 761.222H126.3V781.915H163.262V761.222Z" fill="#4D4D4D"/>
<path d="M160.498 756.394H129.063V766.051H160.498V756.394Z" fill="#4D4D4D"/>
<path d="M156.871 759.325H132.518L140.981 745.185H148.408L156.871 759.325Z" fill="#4D4D4D"/>
<path d="M153.417 765.361H136.145V777.949H153.417V765.361Z" fill="white"/>
<path d="M155.489 770.362H134.072V772.948H155.489V770.362Z" fill="#4D4D4D"/>
<path d="M328.21 795.193C328.728 808.644 318.365 820.198 304.72 820.715C291.248 821.232 279.675 810.713 279.157 797.263C278.639 783.812 289.002 772.258 302.647 771.741C316.119 771.224 327.519 781.743 328.21 795.193Z" fill="#333333"/>
<path d="M324.064 788.468C324.41 796.228 318.365 802.781 310.592 803.126C302.82 803.471 296.257 797.435 295.911 789.675C295.566 781.915 301.611 775.362 309.383 775.017C317.156 774.672 323.719 780.708 324.064 788.468Z" fill="#4D4D4D"/>
<path d="M81.5651 769.844C81.5651 773.121 78.8015 775.88 75.5198 775.88C72.2381 775.88 69.4746 773.121 69.4746 769.844C69.4746 766.568 72.2381 763.809 75.5198 763.809C78.8015 763.809 81.5651 766.395 81.5651 769.844Z" fill="#333333"/>
<path d="M83.6377 775.88C83.6377 780.363 80.0106 783.985 75.5198 783.985C71.0291 783.985 67.402 780.363 67.402 775.88C67.402 771.396 71.0291 767.775 75.5198 767.775C80.0106 767.775 83.6377 771.396 83.6377 775.88Z" fill="#333333"/>
<path d="M79.4923 764.671C79.4923 766.913 77.7651 768.81 75.5198 768.81C73.2745 768.81 71.5472 766.913 71.5472 764.671C71.5472 762.429 73.2745 760.532 75.5198 760.532C77.7651 760.532 79.4923 762.429 79.4923 764.671Z" fill="#333333"/>
<path d="M80.7013 769.844C80.7013 771.741 79.1469 773.293 77.247 773.293C75.347 773.293 73.7926 771.741 73.7926 769.844C73.7926 767.947 75.347 766.395 77.247 766.395C79.1469 766.395 80.7013 767.947 80.7013 769.844Z" fill="#4D4D4D"/>
<path d="M78.9741 765.188C78.9741 766.568 77.7651 767.775 76.3834 767.775C75.0016 767.775 73.7926 766.568 73.7926 765.188C73.7926 763.809 75.0016 762.601 76.3834 762.601C77.7651 762.429 78.9741 763.636 78.9741 765.188Z" fill="#4D4D4D"/>
<path d="M196.77 782.432C196.77 786.744 193.142 790.365 188.824 790.365C184.506 790.365 180.879 786.744 180.879 782.432C180.879 778.121 184.334 774.5 188.824 774.5C193.142 774.5 196.77 778.121 196.77 782.432Z" fill="#333333"/>
<path d="M194.006 775.707C194.006 778.639 191.761 781.053 188.824 781.053C185.888 781.053 183.643 778.639 183.643 775.707C183.643 772.776 185.888 770.361 188.824 770.361C191.588 770.361 194.006 772.776 194.006 775.707Z" fill="#333333"/>
<path d="M193.315 776.224C193.315 778.121 191.761 779.673 189.861 779.673C187.961 779.673 186.406 778.121 186.406 776.224C186.406 774.327 187.961 772.775 189.861 772.775C191.761 772.775 193.315 774.327 193.315 776.224Z" fill="#4D4D4D"/>
<path d="M186.061 788.296C185.197 796.573 177.77 802.436 169.653 801.574C161.362 800.712 155.489 793.297 156.353 785.192C157.217 776.914 164.644 771.051 172.761 771.914C180.879 772.776 186.925 780.018 186.061 788.296Z" fill="#333333"/>
<path d="M182.261 775.018C181.743 780.536 176.907 784.675 171.38 784.157C166.025 783.64 162.053 778.639 162.571 773.121C163.089 767.603 167.925 763.464 173.452 763.981C178.979 764.499 182.779 769.499 182.261 775.018Z" fill="#333333"/>
<path d="M180.879 776.052C180.534 779.674 177.252 782.26 173.798 781.915C170.171 781.57 167.58 778.294 167.925 774.845C168.271 771.224 171.552 768.637 175.007 768.982C178.634 769.327 181.225 772.603 180.879 776.052Z" fill="#4D4D4D"/>
<path d="M264.303 781.053C264.303 788.641 258.258 794.676 250.658 794.676C243.058 794.676 237.013 788.641 237.013 781.053C237.013 773.465 243.058 767.43 250.658 767.43C258.085 767.43 264.303 773.465 264.303 781.053Z" fill="#333333"/>
<path d="M259.467 769.327C259.467 774.5 255.494 778.639 250.486 778.639C245.477 778.639 241.504 774.5 241.504 769.327C241.504 764.153 245.477 760.015 250.486 760.015C255.494 760.187 259.467 764.326 259.467 769.327Z" fill="#333333"/>
<path d="M262.231 781.053C262.231 785.364 258.776 788.985 254.285 788.985C249.967 788.985 246.34 785.537 246.34 781.053C246.34 776.742 249.795 773.121 254.285 773.121C258.603 773.293 262.231 776.742 262.231 781.053Z" fill="#4D4D4D"/>
<path d="M258.258 770.534C258.258 773.81 255.667 776.569 252.213 776.569C248.931 776.569 246.168 773.983 246.168 770.534C246.168 767.257 248.758 764.671 252.213 764.671C255.667 764.498 258.258 767.257 258.258 770.534Z" fill="#4D4D4D"/>
<path d="M234.077 792.434C234.077 802.091 226.132 810.023 216.46 810.023C206.787 810.023 198.842 802.091 198.842 792.434C198.842 782.777 206.787 774.845 216.46 774.845C226.132 774.845 234.077 782.605 234.077 792.434Z" fill="#333333"/>
<path d="M228.032 777.259C228.032 783.812 222.85 789.158 216.46 789.158C210.069 789.158 204.887 783.812 204.887 777.259C204.887 770.706 210.069 765.36 216.46 765.36C222.85 765.36 228.032 770.706 228.032 777.259Z" fill="#333333"/>
<path d="M226.477 778.811C226.477 783.122 223.023 786.399 218.705 786.399C214.387 786.399 210.932 782.95 210.932 778.811C210.932 774.5 214.387 771.051 218.705 771.051C223.023 771.051 226.477 774.5 226.477 778.811Z" fill="#4D4D4D"/>
<path d="M276.739 779.328C276.739 781.398 275.185 782.95 273.285 782.95C271.385 782.95 269.83 781.398 269.83 779.328C269.83 777.259 271.385 775.707 273.285 775.707C275.185 775.707 276.739 777.259 276.739 779.328Z" fill="#333333"/>
<path d="M351.009 775.018C351.009 781.743 345.654 787.089 338.918 787.089C332.182 787.089 326.828 781.743 326.828 775.018C326.828 768.292 332.182 762.946 338.918 762.946C345.654 762.946 351.009 768.292 351.009 775.018Z" fill="#333333"/>
<path d="M355.154 787.089C355.154 796.056 347.9 803.299 338.918 803.299C329.937 803.299 322.683 796.056 322.683 787.089C322.683 778.122 329.937 770.879 338.918 770.879C347.9 770.879 355.154 778.122 355.154 787.089Z" fill="#333333"/>
<path d="M346.864 764.671C346.864 769.155 343.236 772.948 338.918 772.948C334.6 772.948 330.973 769.327 330.973 764.671C330.973 760.187 334.6 756.394 338.918 756.394C343.236 756.394 346.864 760.187 346.864 764.671Z" fill="#333333"/>
<path d="M349.109 775.018C349.109 778.811 346 781.915 342.2 781.915C338.4 781.915 335.291 778.811 335.291 775.018C335.291 771.224 338.4 768.12 342.2 768.12C346 768.12 349.109 771.224 349.109 775.018Z" fill="#4D4D4D"/>
<path d="M345.827 765.706C345.827 768.637 343.409 771.051 340.473 771.051C337.537 771.051 335.119 768.637 335.119 765.706C335.119 762.774 337.537 760.36 340.473 760.36C343.409 760.36 345.827 762.774 345.827 765.706Z" fill="#4D4D4D"/>
<path d="M396.089 790.193C396.089 799.16 388.835 806.402 379.853 806.402C370.872 806.402 363.617 799.16 363.617 790.193C363.617 781.226 370.872 773.983 379.853 773.983C388.835 774.155 396.089 781.398 396.089 790.193Z" fill="#333333"/>
<path d="M390.389 776.397C390.389 782.433 385.553 787.434 379.853 787.434C373.98 787.434 369.144 782.605 369.144 776.397C369.144 770.362 373.98 765.533 379.853 765.533C385.725 765.533 390.389 770.362 390.389 776.397Z" fill="#333333"/>
<path d="M389.007 777.777C389.007 781.743 385.898 784.847 381.926 784.847C377.953 784.847 374.844 781.743 374.844 777.777C374.844 773.811 377.953 770.707 381.926 770.707C385.898 770.707 389.007 773.811 389.007 777.777Z" fill="#4D4D4D"/>
<path d="M660.351 796.746C660.351 811.576 648.433 823.475 633.579 823.475C618.725 823.475 606.807 811.576 606.807 796.746C606.807 781.915 618.725 770.017 633.579 770.017C648.433 770.017 660.351 782.088 660.351 796.746Z" fill="#333333"/>
<path d="M656.378 789.331C656.378 797.78 649.469 804.678 641.006 804.678C632.543 804.678 625.634 797.78 625.634 789.331C625.634 780.881 632.543 773.983 641.006 773.983C649.469 773.983 656.378 780.881 656.378 789.331Z" fill="#4D4D4D"/>
<path d="M694.722 785.192C694.722 797.608 684.532 807.782 672.096 807.782C659.66 807.782 649.469 797.608 649.469 785.192C649.469 772.776 659.66 762.602 672.096 762.602C684.704 762.602 694.722 772.603 694.722 785.192Z" fill="#333333"/>
<path d="M691.268 778.811C691.268 786.054 685.395 791.745 678.314 791.745C671.059 791.745 665.36 785.882 665.36 778.811C665.36 771.741 671.232 765.878 678.314 765.878C685.395 765.878 691.268 771.741 691.268 778.811Z" fill="#4D4D4D"/>
<path d="M637.034 788.813C637.034 801.229 626.843 811.403 614.407 811.403C601.971 811.403 591.781 801.229 591.781 788.813C591.781 776.397 601.971 766.223 614.407 766.223C627.016 766.223 637.034 776.224 637.034 788.813Z" fill="#333333"/>
<path d="M633.579 782.433C633.579 789.675 627.707 795.366 620.625 795.366C613.544 795.366 607.671 789.503 607.671 782.433C607.671 775.19 613.544 769.499 620.625 769.499C627.707 769.499 633.579 775.19 633.579 782.433Z" fill="#4D4D4D"/>
<path d="M567.255 793.987C567.255 806.403 557.064 816.577 544.628 816.577C532.192 816.577 522.002 806.403 522.002 793.987C522.002 781.571 532.192 771.397 544.628 771.397C557.237 771.397 567.255 781.571 567.255 793.987Z" fill="#333333"/>
<path d="M563.8 787.606C563.8 794.849 557.928 800.54 550.846 800.54C543.592 800.54 537.892 794.677 537.892 787.606C537.892 780.364 543.765 774.673 550.846 774.673C557.928 774.673 563.8 780.536 563.8 787.606Z" fill="#4D4D4D"/>
<path d="M539.965 790.193C539.965 802.609 529.774 812.783 517.338 812.783C504.902 812.783 494.712 802.609 494.712 790.193C494.712 777.777 504.902 767.603 517.338 767.603C529.774 767.603 539.965 777.604 539.965 790.193Z" fill="#333333"/>
<path d="M536.51 783.812C536.51 791.055 530.638 796.746 523.556 796.746C516.302 796.746 510.602 790.883 510.602 783.812C510.602 776.57 516.475 770.879 523.556 770.879C530.638 770.879 536.51 776.57 536.51 783.812Z" fill="#4D4D4D"/>
<path d="M557.582 786.571C557.582 793.814 551.71 799.504 544.628 799.504C537.374 799.504 531.674 793.641 531.674 786.571C531.674 779.328 537.547 773.638 544.628 773.638C551.882 773.638 557.582 779.501 557.582 786.571Z" fill="#4D4D4D"/>
<path d="M461.032 787.606C461.032 795.711 454.468 802.436 446.178 802.436C438.06 802.436 431.324 795.883 431.324 787.606C431.324 779.501 437.887 772.775 446.178 772.775C454.468 772.948 461.032 779.501 461.032 787.606Z" fill="#333333"/>
<path d="M458.786 783.467C458.786 788.123 454.986 791.917 450.323 791.917C445.66 791.917 441.86 788.123 441.86 783.467C441.86 778.811 445.66 775.017 450.323 775.017C454.986 775.017 458.786 778.811 458.786 783.467Z" fill="#4D4D4D"/>
<path d="M72.929 775.88C72.929 782.777 67.4019 788.296 60.4931 788.296C53.5844 788.296 48.0573 782.777 48.0573 775.88C48.0573 768.982 53.5844 763.464 60.4931 763.464C67.2292 763.291 72.929 768.982 72.929 775.88Z" fill="#333333"/>
<path d="M77.0742 788.296C77.0742 797.608 69.6473 805.023 60.3204 805.023C50.9936 805.023 43.5667 797.608 43.5667 788.296C43.5667 778.984 50.9936 771.569 60.3204 771.569C69.6473 771.569 77.0742 778.984 77.0742 788.296Z" fill="#333333"/>
<path d="M68.6111 765.188C68.6111 769.844 64.9839 773.638 60.3205 773.638C55.8298 773.638 52.0299 769.844 52.0299 765.188C52.0299 760.532 55.657 756.738 60.3205 756.738C64.9839 756.738 68.6111 760.532 68.6111 765.188Z" fill="#333333"/>
<path d="M71.029 775.879C71.029 779.846 67.7473 783.122 63.7748 783.122C59.8022 783.122 56.5205 779.846 56.5205 775.879C56.5205 771.913 59.8022 768.637 63.7748 768.637C67.7473 768.637 71.029 771.913 71.029 775.879Z" fill="#4D4D4D"/>
<path d="M67.5746 766.223C67.5746 769.154 65.1566 771.741 62.0476 771.741C59.1113 771.741 56.5205 769.327 56.5205 766.223C56.5205 763.291 58.9386 760.705 62.0476 760.705C64.9838 760.705 67.5746 763.119 67.5746 766.223Z" fill="#4D4D4D"/>
<path d="M131.827 780.708C131.827 786.227 127.336 790.71 121.809 790.71C116.282 790.71 111.791 786.227 111.791 780.708C111.791 775.19 116.282 770.707 121.809 770.707C127.336 770.707 131.827 775.19 131.827 780.708Z" fill="#333333"/>
<path d="M128.372 772.086C128.372 775.88 125.436 778.984 121.809 778.984C118.182 778.984 115.245 775.88 115.245 772.086C115.245 768.292 118.182 765.188 121.809 765.188C125.436 765.361 128.372 768.292 128.372 772.086Z" fill="#333333"/>
<path d="M130.272 780.708C130.272 783.985 127.681 786.571 124.4 786.571C121.118 786.571 118.527 783.985 118.527 780.708C118.527 777.604 121.118 775.018 124.4 775.018C127.681 774.845 130.272 777.432 130.272 780.708Z" fill="#4D4D4D"/>
<path d="M127.509 772.948C127.509 775.363 125.609 777.259 123.191 777.259C120.773 777.259 118.873 775.363 118.873 772.948C118.873 770.534 120.773 768.637 123.191 768.637C125.609 768.465 127.509 770.534 127.509 772.948Z" fill="#4D4D4D"/>
</g>
</g>
</svg>
